# xmcd
#
# Track frame offsets: 
#        150
#        13590
#        26753
#        40778
#        54756
#        69651
#        84096
#        97796
#        110926
#        125086
#        139164
#        153803
#        167809
#        180800
#        194010
#        207320
#        221337
#        234479
#        247660
#        261278
#        274719
#        288237
#        301581
#        315636
#        329667
#        344255
#
# Disc length: 4777 seconds
#
# Revision: 1
# Processed by: cddbd v1.5.2PL0 Copyright (c) Steve Scherf et al.
# Submitted via: ExactAudioCopyFreeDBPlugin 1.0
#
DISCID=6612a71a
DTITLE=The Carter Family - In The Shadow Of Clinch Mountain - Vol. 07
DYEAR=2000
DGENRE=Bluegrass
TTITLE0=Lonesome Valley
TTITLE1=God Gave Noah The Rainbow Sign
TTITLE2=Single Girl, Married Girl
TTITLE3=The Fate Of Dewey Lee
TTITLE4=Wildwood Flower
TTITLE5=Sea Of Galilee
TTITLE6=Don't Forget This Song
TTITLE7=My Clinch Mountain Home
TTITLE8=The Storms Are On The Ocean
TTITLE9=Will You Miss Me When I'm Gone
TTITLE10=Broken Hearted Lover
TTITLE11=Little Darling, Pal Of Mine
TTITLE12=The Homestead On The Farm
TTITLE13=Cannon Ball Blues
TTITLE14=Meet Me By The Moonlight Alone
TTITLE15=On The Rock Where Moses Stood
TTITLE16=Lulu Wall
TTITLE17=I'm Thinking Tonight Of My Blue Eyes
TTITLE18=Worried Man Blues
TTITLE19=My Dixie Darling
TTITLE20=Give Me Your Love And I'll Give You Mine
TTITLE21=Are You Lonesome Tonight
TTITLE22=The Last Move For Me
TTITLE23=The Wayworn Traveller
TTITLE24=Just Another Broken Heart
TTITLE25=When Silver Threads Are Gold Again
EXTD=Bear Family CD 15865 LK
EXTT0=08-MAY-1935, New York City
EXTT1=08-MAY-1935, New York City
EXTT2=08-MAY-1935, New York City
EXTT3=08-MAY-1935, New York City
EXTT4=08-MAY-1935, New York City
EXTT5=09-MAY-1935, New York City
EXTT6=09-MAY-1935, New York City
EXTT7=09-MAY-1935, New York City
EXTT8=09-MAY-1935, New York City
EXTT9=09-MAY-1935, New York City
EXTT10=09-MAY-1935, New York City
EXTT11=10-MAY-1935, New York City
EXTT12=10-MAY-1935, New York City
EXTT13=10-MAY-1935, New York City
EXTT14=10-MAY-1935, New York City
EXTT15=10-MAY-1935, New York City
EXTT16=10-MAY-1935, New York City
EXTT17=10-MAY-1935, New York City
EXTT18=10-MAY-1935, New York City
EXTT19=08-JUN-1936, New York City
EXTT20=08-JUN-1936, New York City
EXTT21=08-JUN-1936, New York City
EXTT22=08-JUN-1936, New York City
EXTT23=08-JUN-1936, New York City
EXTT24=08-JUN-1936, New York City
EXTT25=08-JUN-1936, New York City
PLAYORDER=
